<?xml version="1.0" encoding="UTF-8"?>
<!DOCTYPE svg PUBLIC "-//W3C//DTD SVG 1.1//EN" "http://www.w3.org/Graphics/SVG/1.1/DTD/svg11.dtd">
<!-- Creator: CorelDRAW -->
<svg xmlns="http://www.w3.org/2000/svg" xml:space="preserve" width="1850px" height="3220px" shape-rendering="geometricPrecision" text-rendering="geometricPrecision" image-rendering="optimizeQuality" fill-rule="evenodd" clip-rule="evenodd"
viewBox="0 0 1850 3220"
 xmlns:xlink="http://www.w3.org/1999/xlink">
 <g id="Layer_x0020_1">
  <metadata id="CorelCorpID_0Corel-Layer"/>
  <g id="_49640416">
   <polygon id="_49724864" fill="#EEEEC1" stroke="black" stroke-width="3.9685" points="447.25,306.408 470.386,283.77 503.041,309.056 508.241,290.957 498.096,264.168 515.373,243.523 541.142,230.846 582.527,245.222 652.536,387.155 650.498,421.56 668.208,414.111 698.875,436.315 730.946,439.643 737.886,453.995 767.05,440.852 794.593,431.122 805.631,411.657 826.474,400.715 867.688,431.249 911.319,450.333 935.447,480.04 941.618,467.44 958.874,467.546 956.057,431.801 981.203,394.817 999.647,383.733 1019.98,388.942 1029.96,353.948 1026.26,291.795 1044.56,187.115 1053.95,170.015 1048.43,154.046 1062.8,131.011 1092.01,105.02 1109.32,63.8076 1137.7,53.8597 1187.06,66.7182 1229.81,32.8235 1240.5,17.299 1255.92,22.3021 1271.52,12.4702 1299.19,51.0078 1325.89,67.8067 1327.92,86.7586 1415.17,129.751 1444.46,204.441 1392.61,271.816 1389.12,305.528 1399.42,341.632 1345.51,386.989 1378.29,386.874 1386.42,400.648 1379.95,447.124 1351.16,499.02 1375.62,601.001 1447.9,630.406 1495.17,726.91 1541.3,761.428 1537.59,806.454 1439.5,990.417 1432.05,1014.99 1496.5,1123.82 1527.19,1206.25 1551.95,1242.75 1581.46,1326.93 1590.18,1388.12 1570.99,1389.93 1542.77,1408.72 1553.45,1426.4 1544.6,1456.18 1542.45,1488.58 1531.53,1525.53 1557.64,1527.94 1565.78,1537.36 1557.25,1554.86 1564.24,1564.14 1556.65,1579.86 1537.41,1586.27 1532.05,1606.34 1546.88,1663.4 1597.28,1673.75 1592.83,1689.7 1603.41,1702.94 1602.76,1722.96 1591.76,1732.62 1591.85,1755.34 1607.29,1796.88 1661.38,1833.98 1671.96,1883.19 1637.83,1972.26 1605.59,1995.25 1660.07,2053.44 1678.1,2078.92 1722.88,2099.27 1754.62,2124.3 1779.56,2141.53 1791.14,2181.39 1826.14,2209.87 1838.25,2240.47 1796.74,2372.22 1761.67,2437.49 1742.77,2444.89 1714.05,2488.93 1674.16,2558.84 1652.86,2580.91 1640.92,2614.69 1610.92,2642.31 1590.74,2684.67 1565.32,2702.68 1559.58,2720.44 1521.84,2784.07 1477.67,2814.72 1461.87,2821.15 1442.9,2853.64 1440.5,2874.94 1420.09,2879.49 1381.85,2912.96 1374.51,2932.58 1320.71,2984.32 1320.22,2994.45 1309.88,3001.29 1297.83,2993.4 1293.02,2997.09 1289.27,3013.92 1283.96,3022.6 1275.93,3022.85 1266.2,3024.26 1259.83,3020.74 1253.98,3024.67 1246.93,3031.3 1237.88,3017.88 1214.41,3015.12 1185.95,3005.82 1174.43,3017.4 1174.77,3035.97 1170.62,3043.42 1158.95,3043.06 1145.56,3029.7 1137.74,3036.82 1127.73,3037.17 1121.47,3030.56 1114.84,3035.16 1100.76,3035.18 1084.65,3051.01 1077.2,3050.74 1072.01,3039.52 1062.07,3040.08 1063.17,3054.71 1057.95,3063.16 1051.9,3063.64 1046.77,3052.19 1035.89,3040.99 1020.37,3026.17 1019.01,3034.27 1028.53,3047.12 1031.16,3057.65 1040.51,3074.21 1034.92,3076.65 1027.33,3072.88 1022.39,3074.6 1023.32,3087.11 1018.22,3089.14 1009.87,3071.95 1005.69,3075.35 1010.35,3090.28 1006.1,3095.77 997.892,3090.65 990.472,3098.65 985.473,3097.7 972.853,3082.02 968.897,3067.38 952.977,3069.18 952.616,3082.45 946.493,3089.99 922.244,3090.62 902.949,3095.94 900.695,3102.9 892.952,3113.41 882.151,3110.07 883.845,3122.61 873.039,3131.75 870.922,3120.09 866.156,3127.65 852.037,3127.45 841.993,3120.6 815.233,3130 810.023,3124.78 807.876,3129.9 807.915,3139.79 778.553,3176.68 769.043,3175.94 781.98,3158.97 775.962,3155.49 769.031,3161.53 764.3,3161.48 765.222,3142.32 743.153,3154.52 712.927,3155.18 676.242,3170.9 658.139,3172.56 660.687,3181.87 654.24,3186.8 641.702,3184.08 625.74,3187.49 617.955,3181.94 605.876,3180.38 595.951,3191.38 595.949,3198.56 583.002,3209.62 557.96,3209.42 537.239,3218.03 530.321,3209.29 536.797,3201.99 564.436,3192.24 570.044,3185.48 572.628,3166.2 567.866,3158.83 562.257,3163.35 561.839,3179.17 557.102,3183.79 539.38,3180.7 529.662,3167.86 532.061,3156.11 543.283,3155.62 552.346,3160.3 557.033,3120.33 541.192,3110.79 537.207,3089.7 566.573,3053.91 560.993,3044.61 525.556,3072 502.648,3078.75 492.81,3069.85 477.122,3070.23 477.083,3060.6 491.801,3037.08 482.838,3030.26 477.244,3035.11 439.58,3042.37 429.671,3032.97 421.646,3032.46 423.318,3011.49 419.829,3008.75 410.995,3014.44 400.102,3004.5 403.309,3000.52 410.744,3000.89 411.138,2992.98 403.129,2985.24 381.855,2985.9 365.246,2989.96 366.007,2981.98 373.265,2971.78 381.158,2972.54 388.042,2954.77 381.275,2951.73 361.125,2962.54 356.169,2984.02 345.016,2985.02 340.669,2966.38 326.393,2953.83 315.413,2925.04 315.733,2907.07 310.639,2898.99 310.103,2885.87 307.685,2876.72 309.525,2871.32 312.74,2869.12 314.312,2864.07 299.131,2854.87 298.277,2849.22 311.581,2846.54 312.036,2838.73 305.547,2831.79 309.368,2827.79 316.677,2827.31 323.123,2840.27 329.946,2845.67 332.196,2837.95 321.275,2826.62 316.942,2802.83 325.226,2798.21 329.752,2805.19 336.696,2791.24 344.036,2749.34 351.563,2754.36 355.377,2749.51 354.588,2742.93 359.305,2718.54 349.043,2694.48 350.98,2691.46 355.672,2689.93 362.692,2692.68 368.098,2691.69 364.464,2682.81 353.237,2676.89 352.365,2668.97 359.928,2669.27 371.845,2672.78 371.506,2668.3 364.922,2662.97 357.856,2648.63 360.838,2642.96 366.421,2643.36 375.297,2653.48 381.959,2653.71 369.055,2624.74 369.066,2598.47 355.667,2581.12 358.36,2575.18 366.205,2574.35 366.713,2569.69 360.695,2565.01 356.998,2541.43 348.073,2535.95 345.369,2525.92 337.537,2512.92 344.748,2485.54 352.456,2472.92 351.998,2461.69 363.884,2448.98 362.311,2440.91 347.392,2435.08 347.355,2423.82 357.528,2410.26 358.174,2403.18 336.5,2402.11 330.056,2392.12 336.037,2368.3 331.429,2363.41 333.626,2344.77 343.494,2328.64 342.477,2322.13 337.309,2318.26 330.524,2323.97 326.707,2319.37 329.931,2298.82 334.833,2293.07 341.215,2287.28 342.182,2278.6 335.49,2270.98 336.684,2266.16 347.967,2266.75 353.669,2260.65 356.646,2242.59 367.6,2238.82 368.312,2244.32 379.557,2243.04 383.826,2238.68 382.519,2228.3 393.001,2218.35 394.061,2206.62 389.596,2197.02 379.131,2189.04 383.771,2181.5 393.724,2188.11 400.044,2186.05 409.182,2188.48 414.313,2186.49 411.186,2178.75 401.29,2170.13 400.061,2162.28 408.449,2151.86 409.215,2130.19 417.245,2122.04 422.081,2136.49 433.547,2136.24 458.153,2125.88 492.716,2138.27 505.656,2135.24 513.762,2119.86 524.828,2119.64 529.243,2108.91 517.167,2081.81 511.665,2076.28 509.276,2068.54 513.231,2063.3 520.831,2062.85 525.783,2041.4 532.601,2037.66 539.155,2046.26 542.926,2029.75 551.895,2023.2 552.901,2018.33 562.478,2010.08 569.145,2007.2 570.978,1998.54 583.04,1990.84 584.6,1979.05 581.852,1962.95 591.72,1956.42 601.431,1941.89 614.484,1941.97 620.454,1949.16 627.046,1949.01 632.894,1940.46 680.7,1938.3 681.752,1892.56 689.742,1886.86 701.566,1898.15 711.053,1896.5 712.255,1873 729.504,1846.72 736.929,1840.74 745.89,1827.18 753.402,1832.15 759.52,1828.85 759.75,1814.16 767.431,1801.56 770.444,1794.39 790.658,1772.72 808.079,1761.18 808.961,1754.2 821.594,1744.44 831.76,1701.42 850.882,1688.13 856.006,1661.64 868.358,1660.21 872.585,1652.55 879.749,1646.18 901.168,1645.96 910.631,1638.59 928.933,1638.74 948.525,1650.12 950.295,1660.59 959.263,1661.37 964.396,1656.72 960.468,1644.96 940.946,1625.36 939.789,1616.83 942.141,1610.15 955.53,1611.31 969.928,1622.96 976.33,1623.26 977.108,1617.57 967.701,1607.99 964.558,1587.23 959.271,1577.55 946.872,1570.4 942.489,1560.84 951.167,1549.21 951.262,1518.07 945.823,1508.04 952.114,1500.35 952.087,1485.75 960.251,1477.08 961.264,1464.66 942.589,1431.43 937.944,1435.71 930.99,1435.67 930.422,1422.61 922.029,1414.02 913.155,1414.84 904.869,1404.12 890.955,1402.05 883.972,1407.75 875.725,1408.59 871.787,1395.89 861.645,1402.51 856.356,1396.39 863.695,1380.99 857.172,1371.33 836.284,1363.6 826.606,1351.98 818.861,1364.32 807.783,1365.6 807.523,1343.63 797.374,1316.29 795.893,1296.54 779.11,1269.15 778.033,1248.55 757.864,1228.99 750.019,1190.06 754.62,1178.11 750.448,1161.37 756.438,1142.85 761.176,1127.39 778.865,1112.05 782.274,1055.85 799.772,1036.51 752.274,926.744 753.372,895.293 777.09,882.964 771.763,864.707 778.791,848.836 751.226,844.084 739.603,823.159 754.668,784.434 753.478,727.725 753.878,709.269 762.58,694.605 773.577,681.533 747.147,654.018 741.163,625.518 726.813,627.533 720.611,610.538 720.525,581.652 673.485,538.307 630.177,518.45 597.651,511.034 588.644,484.983 566.441,474.119 557.714,452.201 533.959,444.823 501.396,377.22 478.674,371.093 476.913,344.766 "/>
   <polygon id="_49723848" fill="#EEEEC1" stroke="black" stroke-width="3.9685" points="855.412,1598.1 861.456,1586.86 894.698,1579.09 903.991,1590.04 913.147,1589.91 919.012,1586.9 924.154,1591.57 923.936,1597.58 911.681,1602.61 899.271,1594.38 889.351,1597.03 896.472,1619.7 887.759,1625.95 877.154,1619.38 865.773,1622.29 "/>
   <polygon id="_49722824" fill="#EEEEC1" stroke="black" stroke-width="3.9685" points="936.143,1572.61 944.863,1575.91 946.073,1584.27 939.165,1584.27 932.69,1578.65 "/>
   <polygon id="_49721800" fill="#EEEEC1" stroke="black" stroke-width="3.9685" points="719.422,1845.65 721.234,1851.98 716.831,1859.91 709.492,1860.34 711.651,1848.67 "/>
   <polygon id="_49720768" fill="#EEEEC1" stroke="black" stroke-width="3.9685" points="574.796,1964.89 573.604,1978.84 567.457,1985.19 562.708,1975.69 567.889,1958.84 "/>
   <polygon id="_49719608" fill="#EEEEC1" stroke="black" stroke-width="3.9685" points="458.665,2069.01 458.335,2077.34 450.462,2079.38 445.713,2067.71 454.779,2065.12 "/>
   <polygon id="_49718584" fill="#EEEEC1" stroke="black" stroke-width="3.9685" points="486.295,2091.91 491.864,2097.12 488.496,2102.76 478.626,2103.26 472.048,2108.32 467.299,2107.89 477.229,2091.91 "/>
   <polygon id="_49717560" fill="#EEEEC1" stroke="black" stroke-width="3.9685" points="505.722,2111.78 506.543,2121.75 501.016,2132.14 487.692,2125.73 476.365,2126.04 472.48,2117.4 485.431,2109.19 499.269,2115.05 "/>
   <polygon id="_49716536" fill="#EEEEC1" stroke="black" stroke-width="3.9685" points="431.898,2108.32 443.944,2118.72 441.871,2125.23 434.591,2118.38 429.74,2129.06 424.127,2127.76 424.127,2117.4 "/>
   <polygon id="_49715512" fill="#EEEEC1" stroke="black" stroke-width="3.9685" points="366.709,2080.67 372.279,2080.7 372.424,2090.3 366.277,2099.68 358.075,2099.68 361.528,2090.61 "/>
   <polygon id="_49714488" fill="#EEEEC1" stroke="black" stroke-width="3.9685" points="383.114,2089.31 390.411,2089.34 394.01,2097.64 387.863,2105.73 377.502,2105.73 372.753,2097.52 "/>
   <polygon id="_49713216" fill="#EEEEC1" stroke="black" stroke-width="3.9685" points="371.458,2110.48 371.634,2117.48 365.42,2123.44 368.686,2129.13 378.835,2129.46 382.736,2121.16 391.104,2123.44 397.908,2138.24 393.795,2148.94 382.57,2144.99 376.164,2155.01 367.243,2152.94 361.097,2147.21 354.189,2146.77 344.692,2110.48 351.167,2108.32 356.328,2114.13 365.362,2105.08 "/>
   <polygon id="_49712192" fill="#EEEEC1" stroke="black" stroke-width="3.9685" points="303.678,2195.59 310.112,2198.22 309.825,2205.65 307.132,2211.15 301.088,2211.15 297.634,2204.67 "/>
   <polygon id="_49711168" fill="#EEEEC1" stroke="black" stroke-width="3.9685" points="350.304,2196.46 357.083,2201.97 358.032,2209.45 356.019,2218.61 350.304,2218.49 344.692,2213.74 344.692,2199.91 "/>
   <polygon id="_49710144" fill="#EEEEC1" stroke="black" stroke-width="3.9685" points="338.648,2247 347.671,2242.71 351.701,2251.45 345.987,2255.64 340.806,2259.96 333.467,2255.64 "/>
   <polygon id="_49708984" fill="#EEEEC1" stroke="black" stroke-width="3.9685" points="324.833,2278.54 328.676,2277.71 334.433,2289.47 332.603,2292.37 326.128,2292.8 323.969,2288.48 "/>
   <polygon id="_49707960" fill="#EEEEC1" stroke="black" stroke-width="3.9685" points="323.063,2333.87 329.684,2341.31 330.013,2345.51 323.106,2349.4 317.925,2344.21 320.043,2338.14 "/>
   <polygon id="_49706936" fill="#EEEEC1" stroke="black" stroke-width="3.9685" points="328.244,2758.13 334.09,2761.79 335.625,2768.9 331.74,2774.08 326.128,2774.51 323.496,2764.56 324.939,2761.79 "/>
   <polygon id="_49705912" fill="#EEEEC1" stroke="black" stroke-width="3.9685" points="267.606,2961.82 278.207,2977.57 271.3,2995.71 263.097,2993.98 261.43,2962.19 "/>
   <polygon id="_49704888" fill="#EEEEC1" stroke="black" stroke-width="3.9685" points="246.452,2978.24 253.967,2990.16 251.441,3001.76 243.67,3006.08 237.194,2991.39 238.549,2983.36 "/>
   <polygon id="_49703864" fill="#EEEEC1" stroke="black" stroke-width="3.9685" points="263.289,3000.27 269.941,3008.3 267.414,3022.93 262.234,3027.68 255.758,3023.79 252.795,3009.29 "/>
   <polygon id="_49702840" fill="#EEEEC1" stroke="black" stroke-width="3.9685" points="229.615,3015.82 239.289,3019.97 239.353,3029.41 231.582,3031.57 226.401,3025.95 "/>
   <polygon id="_49701816" fill="#EEEEC1" stroke="black" stroke-width="3.9685" points="208.892,3019.71 214.681,3015.65 219.925,3020.77 216.04,3030.71 208.71,3032.31 206.111,3028.98 206.111,3028.55 "/>
   <polygon id="_49700680" fill="#EEEEC1" stroke="black" stroke-width="3.9685" points="208.892,3044.34 217.703,3040.27 222.947,3047.55 224.674,3051.88 214.754,3060.83 209.996,3057.49 209.133,3053.17 "/>
   <polygon id="_49699656" fill="#EEEEC1" stroke="black" stroke-width="3.9685" points="195.078,3053.84 201.298,3054.96 203.52,3060.52 203.509,3064.8 204.825,3071.2 194.886,3071.32 191.864,3059.22 "/>
   <polygon id="_49698496" fill="#EEEEC1" stroke="black" stroke-width="3.9685" points="185.148,3071.12 194.822,3077 200.93,3090.33 199.624,3093.32 199.212,3098.41 187.547,3097.67 184.837,3085.63 179.344,3079.53 "/>
   <polygon id="_49697472" fill="#EEEEC1" stroke="black" stroke-width="3.9685" points="146.294,3009.78 162.496,3017.71 162.516,3022.81 140.058,3021.2 140.49,3014.29 "/>
   <polygon id="_49696416" fill="#EEEEC1" stroke="black" stroke-width="3.9685" points="155.791,3030.51 159.545,3036.75 156.366,3044.12 161.433,3051.86 153.43,3063.07 148.27,3062.99 149.128,3048.14 143.08,3041.94 149.987,3035.03 "/>
   <polygon id="_49695392" fill="#EEEEC1" stroke="black" stroke-width="3.9685" points="154.064,3107.41 172.928,3109.76 177.952,3115.84 171.362,3124.01 150.84,3130.04 135.75,3129.52 132.723,3124.61 146.534,3113.22 "/>
   <polygon id="_49694368" fill="#EEEEC1" stroke="black" stroke-width="3.9685" points="165.289,3090.13 171.045,3091.22 177.838,3097.65 178.038,3102.39 165.97,3101.01 160.785,3095.23 "/>
   <polygon id="_49693576" fill="#EEEEC1" stroke="black" stroke-width="3.9685" points="130.752,3071.12 134.505,3071.75 136.075,3079.98 130.349,3090.74 133.571,3098.07 122.799,3097.98 121.067,3082.71 "/>
   <polygon id="_49692784" fill="#EEEEC1" stroke="black" stroke-width="3.9685" points="80.2409,2984.72 96.0117,3000 110.57,3002.67 116.952,3013.4 125.338,3017.01 126.649,3027.42 136.604,3039.53 129.256,3061.04 111.723,3063.88 100.685,3051.67 93.9852,3051.01 88.2607,3060.92 98.2817,3068.5 89.8591,3088.41 91.9593,3091.84 100.252,3092.07 105.29,3088.76 121.464,3097.49 121.543,3104.16 118.155,3111.75 124.124,3117.93 123.087,3125.48 113.245,3132.28 110.76,3121.79 104.384,3123.01 99.7696,3112.49 85.9181,3102.6 73.7187,3105.29 72.0264,3094.84 67.309,3088.85 57.8616,3087.88 52.2062,3081.53 50.58,3069.36 40.8988,3058.24 34.306,3058.34 29.0027,3057.13 26.231,3066.71 18.7639,3067.12 13.2928,3054.88 16.2428,3041.93 10.9528,3036.26 14.2393,3027.6 33.4043,3019.43 42.1132,3022.18 51.423,3020.76 58.877,3011.23 67.1508,3016.5 64.8825,3031.32 71.0048,3032.88 76.235,3026.9 74.3131,3022.51 74.2697,3016.37 69.6974,3008.55 55.4414,3006.51 67.9612,2990.09 "/>
   <polygon id="_49691992" fill="#EEEEC1" stroke="black" stroke-width="3.9685" points="229.615,3142.84 233.643,3145.65 241.3,3149.5 239.235,3152.91 237.465,3158.34 231.583,3158.17 226.39,3166.33 213.459,3156.74 216.045,3149.24 "/>
   <polygon id="_49690952" fill="#EEEEC1" stroke="black" stroke-width="3.9685" points="919.902,3105.83 917.613,3101.96 915.411,3099.48 920.206,3095.37 927.073,3095.37 930.123,3096.73 935.853,3097.08 933.413,3101.59 930.16,3105.16 "/>
   <polygon id="_49689912" fill="#EEEEC1" stroke="black" stroke-width="3.9685" points="945.243,3112.33 945.2,3102.93 951.289,3097.53 953.272,3114.98 946.997,3115.96 "/>
   <polygon id="_49688736" fill="#EEEEC1" stroke="black" stroke-width="3.9685" points="961.217,3097.21 960.741,3079.6 965.536,3078.08 967.638,3089.34 973.206,3095.95 972.996,3103.68 971.509,3105.3 971.404,3108.93 966.299,3114.24 961.675,3110.34 "/>
   <polygon id="_49687696" fill="#EEEEC1" stroke="black" stroke-width="3.9685" points="995.754,3108.44 997.006,3102.07 1002.73,3100.5 1006.12,3097.53 1012.92,3102.86 1015.44,3108.07 1009.04,3114.68 996.213,3112.94 "/>
   <polygon id="_49686656" fill="#EEEEC1" stroke="black" stroke-width="3.9685" points="1032.88,3087.27 1045.84,3080.68 1048.32,3091.63 1039.26,3093.51 "/>
   <polygon id="_49685616" fill="#EEEEC1" stroke="black" stroke-width="3.9685" points="1051.01,3074.74 1053.08,3067.81 1060.08,3067.72 1064.73,3078.24 1058.69,3081.41 1052.12,3077.59 "/>
   <polygon id="_49684576" fill="#EEEEC1" stroke="black" stroke-width="3.9685" points="1087.28,3059.62 1091.5,3053.98 1107.04,3061.82 1106.61,3068.88 1091.4,3066.36 "/>
   <polygon id="_49683536" fill="#EEEEC1" stroke="black" stroke-width="3.9685" points="1135.63,3064.37 1145.03,3056.57 1151.07,3066.14 1147.62,3071.91 1141.05,3068.08 "/>
   <polygon id="_49682496" fill="#EEEEC1" stroke="black" stroke-width="3.9685" points="1106.27,3050.55 1116.97,3039.29 1124.74,3039.36 1126.9,3047.28 1113.85,3057.28 "/>
   <polygon id="_49681456" fill="#EEEEC1" stroke="black" stroke-width="3.9685" points="1199.09,3083.81 1203.68,3079.3 1205.9,3079.47 1211.78,3084.98 1214.97,3087.31 1207.63,3091.78 1198.9,3091.41 "/>
   <polygon id="_49679952" fill="#EEEEC1" stroke="black" stroke-width="3.9685" points="1183.55,3033.27 1190.79,3035.84 1190.79,3059.23 1184.75,3059.38 1179.47,3046.91 "/>
   <polygon id="_49678928" fill="#EEEEC1" stroke="black" stroke-width="3.9685" points="349.398,2617.28 354.292,2618.67 364.119,2636.69 359.435,2641.9 349.44,2641.88 342.533,2634.53 347.672,2629.33 "/>
   <polygon id="_49677768" fill="#EEEEC1" stroke="black" stroke-width="3.9685" points="293.941,2955.34 306.7,2974.54 306.7,2984.48 298.066,2984.48 292.844,2977.55 290.355,2958.31 "/>
   <polygon id="_49676744" fill="#EEEEC1" stroke="black" stroke-width="3.9685" points="315.958,2957.93 326.991,2969.36 327.461,2971.05 334.33,2977.57 330.013,2990.53 323.13,2989.03 311.408,2974.09 311.509,2961.76 "/>
   <polygon id="_49675704" fill="#EEEEC1" stroke="black" stroke-width="3.9685" points="301.712,2930.28 308.427,2935.23 309.291,2950.35 302.383,2957.26 293.276,2947.74 292.082,2937.14 "/>
   <polygon id="_49674672" fill="#EEEEC1" stroke="black" stroke-width="3.9685" points="330.073,3187.96 339.846,3188.42 341.204,3193.09 333.48,3198.2 327.412,3203.05 319.661,3199.08 "/>
   <polygon id="_49673640" fill="#EEEEC1" stroke="black" stroke-width="3.9685" points="360.725,3150.38 366.612,3156.02 366.675,3169.32 363.7,3173.58 355.042,3172.81 351.608,3162.79 356.398,3157.33 "/>
   <polygon id="_49672616" fill="#EEEEC1" stroke="black" stroke-width="3.9685" points="284.875,2997.25 289.799,3007.01 285.546,3016.45 278.207,3010.83 279.562,3000.64 "/>
   <polygon id="_49671592" fill="#EEEEC1" stroke="black" stroke-width="3.9685" points="300.848,3017.12 307.068,3026.02 304.974,3029.84 295.908,3030.71 291.59,3025.09 294.24,3017.93 "/>
   <polygon id="_49670568" fill="#EEEEC1" stroke="black" stroke-width="3.9685" points="317.685,3003.73 319.652,3017.74 316.447,3018.83 313.608,3023.36 309.291,3017.31 310.645,3004.53 "/>
   <polygon id="_49669776" fill="#EEEEC1" stroke="black" stroke-width="3.9685" points="352.654,2997.68 354.621,3004.35 348.807,3012.44 346.235,3017.1 339.511,3017.31 337.352,3015.15 337.412,3007.12 "/>
   <polygon id="_49668984" fill="#EEEEC1" stroke="black" stroke-width="3.9685" points="296.963,3060.75 302.751,3067.49 320.515,3067 320.071,3074.18 319.035,3081.94 313.34,3083.8 307.132,3086.44 287.273,3079.53 290.355,3061.56 "/>
   <polygon id="_49667344" fill="#EEEEC1" stroke="black" stroke-width="3.9685" points="350.064,3078.9 350.24,3086.07 348.447,3093.75 347.881,3099.66 345.542,3103.55 339.326,3107.86 326.291,3108.43 320.515,3101.13 328.286,3093.35 329.286,3091.41 339.57,3079.71 "/>
   <polygon id="_49666552" fill="#EEEEC1" stroke="black" stroke-width="3.9685" points="320.275,3047.79 319.22,3057.92 313.176,3064.84 307.737,3063.63 303.247,3060.52 306.515,3057.23 307.13,3054.9 312.804,3049.03 "/>
   <polygon id="_49665760" fill="#EEEEC1" stroke="black" stroke-width="3.9685" points="337.544,3048.66 348.309,3070.84 336.921,3076.93 331.308,3072.61 331.8,3052.06 "/>
   <polygon id="_49664704" fill="#EEEEC1" stroke="black" stroke-width="3.9685" points="391.077,3000.27 392.18,3005.65 409.216,3029.98 407.241,3038.91 406.494,3047.57 399.242,3054.79 389.652,3053.18 390.225,3046.71 392.182,3036.06 382.912,3028.43 374.912,3010.4 376.639,2997.87 381.015,2994.16 "/>
   <polygon id="_49663432" fill="#EEEEC1" stroke="black" stroke-width="3.9685" points="381.147,3077.6 391.253,3084.77 386.87,3091.15 375.511,3094.05 366.092,3107.86 358.238,3104.97 360.655,3088.24 363.255,3077.8 "/>
   <polygon id="_49662640" fill="#EEEEC1" stroke="black" stroke-width="3.9685" points="370.354,3027.92 371.458,3034.16 372.12,3039.66 361.96,3041.94 352.894,3033.73 354.001,3027.78 356.839,3023.54 "/>
   <polygon id="_49661600" fill="#EEEEC1" stroke="black" stroke-width="3.9685" points="402.478,3107.24 400.551,3112.62 376.37,3112.31 373.175,3106.82 382.683,3097.67 "/>
   <polygon id="_49660560" fill="#EEEEC1" stroke="black" stroke-width="3.9685" points="418.451,3082.61 413.071,3095.77 397.956,3097.63 397.783,3087.38 412.903,3079.09 "/>
   <polygon id="_49659768" fill="#EEEEC1" stroke="black" stroke-width="3.9685" points="476.557,3040.45 481.546,3048.42 447.01,3087.91 437.532,3088.73 430.833,3081.13 432.456,3072.06 421.355,3068.87 418.947,3059.65 426.418,3045.43 438.374,3048.42 448.795,3047.3 "/>
   <polygon id="_49658728" fill="#EEEEC1" stroke="black" stroke-width="3.9685" points="466.372,3090.39 458.089,3102.31 456.703,3101.67 451.007,3108.31 443.291,3108.3 438.538,3103.24 451.748,3087.38 460.823,3086.87 "/>
   <polygon id="_49657192" fill="#EEEEC1" stroke="black" stroke-width="3.9685" points="543.473,3074.15 528.171,3095.51 536.736,3114.9 521.456,3131.35 521.697,3141.04 515.675,3149.44 503.153,3151.37 487.626,3145.06 477.636,3151.36 462.275,3150.43 454.146,3138.16 457.064,3123.9 474.025,3110.78 472.911,3104.15 467,3096.84 472.911,3091.62 472.971,3085.75 477.236,3081.48 486.309,3087.81 "/>
   <polygon id="_49656152" fill="#EEEEC1" stroke="black" stroke-width="3.9685" points="498.239,3169.71 494.694,3174.68 480.418,3171.81 475.234,3160.7 479.809,3156.94 490.612,3158.59 "/>
   <polygon id="_49655112" fill="#EEEEC1" stroke="black" stroke-width="3.9685" points="463.27,3164.95 461.883,3171.22 450.63,3170.95 448.467,3160.27 452.643,3156.45 453.518,3155.96 456.928,3153.05 463.845,3157.29 "/>
   <polygon id="_49654072" fill="#EEEEC1" stroke="black" stroke-width="3.9685" points="477.085,3193.47 464.877,3202.05 453.216,3196.99 465.994,3183.72 477.66,3184.51 "/>
   <polygon id="_49653032" fill="#EEEEC1" stroke="black" stroke-width="3.9685" points="545.727,3128.66 537.002,3130.18 534.81,3125.71 542.408,3118.05 549.325,3120.57 "/>
   <polygon id="_49642920" fill="#EEEEC1" stroke="black" stroke-width="3.9685" points="528.459,3153.72 524.449,3142.13 534.205,3134.04 542.418,3146.49 536.083,3150.22 "/>
   <polygon id="_49642128" fill="#EEEEC1" stroke="black" stroke-width="3.9685" points="616.529,3206 611.001,3204.52 606.907,3201.75 612.346,3195.39 619.691,3196.9 629.193,3194.44 625.88,3202.06 621.483,3203.23 "/>
   <polygon id="_49640504" fill="#EEEEC1" stroke="black" stroke-width="3.9685" points="695.101,3182.24 686.775,3177.98 692.214,3168.17 699.167,3164.06 705.602,3164.06 708.747,3165.84 714.382,3165.77 703.94,3174.72 "/>
  </g>
  <polygon fill="none" stroke="#8C8C60" stroke-width="1.70079" points="928.559,1420.71 927.958,1421.27 942.929,1406.08 964.203,1395.04 967.388,1380.28 1020.74,1383.33 1067.21,1354.06 1070.71,1384.04 1162.55,1391.99 1193.69,1381.38 1236.15,1312.2 1249.7,1318.37 1260,1313.49 1273.85,1347.87 1341.27,1358.53 1371.07,1345.51 1372.2,1326.49 1357.47,1304.29 1375.8,1295.42 1393.91,1300.56 1399.38,1296.11 1399.02,1279.32 1386.49,1270.19 1386.81,1252.85 1396.18,1251.39 1400.72,1220.12 1382.27,1212.36 1369.63,1185.16 1374.51,1166.83 1389.49,1160.9 1389,1144.27 1463.24,1161.68 1508.47,1155.87 1496.5,1123.82 1432.05,1014.99 1439.5,990.417 1537.59,806.454 1541.3,761.428 1495.17,726.91 1447.9,630.406 1375.62,601.001 1351.16,499.02 1379.95,447.124 1386.42,400.648 1378.29,386.874 1345.51,386.989 1399.42,341.632 1389.12,305.528 1392.61,271.816 1444.46,204.441 1415.17,129.751 1327.92,86.7586 1325.89,67.8067 1299.19,51.0078 1271.52,12.4702 1255.92,22.3021 1240.5,17.299 1229.81,32.8235 1187.06,66.7182 1137.7,53.8597 1109.32,63.8076 1092.01,105.02 1062.8,131.011 1048.43,154.046 1053.95,170.015 1044.56,187.115 1026.26,291.795 1029.96,353.948 1019.98,388.942 999.647,383.733 981.203,394.817 956.057,431.801 958.874,467.546 941.618,467.44 935.447,480.04 911.319,450.333 867.688,431.249 826.474,400.715 805.631,411.657 794.593,431.122 767.05,440.852 737.886,453.995 730.946,439.643 698.875,436.315 668.208,414.111 650.498,421.56 652.536,387.155 582.527,245.222 541.142,230.846 515.373,243.523 498.096,264.168 508.241,290.957 503.041,309.056 470.386,283.77 447.25,306.408 476.913,344.766 478.674,371.093 501.396,377.22 533.959,444.823 557.714,452.201 566.441,474.119 588.644,484.983 597.651,511.034 630.177,518.45 673.485,538.307 720.525,581.652 720.611,610.538 726.813,627.533 741.163,625.518 747.147,654.018 773.577,681.533 762.58,694.605 753.878,709.269 753.478,727.725 754.668,784.434 739.603,823.159 751.226,844.084 778.791,848.836 771.763,864.707 777.09,882.964 753.372,895.293 752.274,926.744 799.772,1036.51 782.274,1055.85 778.865,1112.05 761.176,1127.39 756.438,1142.85 750.448,1161.37 754.62,1178.11 750.019,1190.06 757.864,1228.99 778.033,1248.55 779.11,1269.15 795.893,1296.54 797.374,1316.29 807.523,1343.63 807.783,1365.6 818.861,1364.32 826.606,1351.98 836.284,1363.6 857.172,1371.33 863.695,1380.99 856.356,1396.39 861.645,1402.51 871.787,1395.89 875.725,1408.59 883.972,1407.75 890.955,1402.05 904.869,1404.12 913.155,1414.84 922.029,1414.02 "/>
  <g id="_48243368">
   <polygon id="_49281304" fill="none" stroke="#8C8C60" stroke-width="1.70079" points="1157.53,1917.49 1200.7,1933.84 1251.78,1937.73 1313.43,1977.19 1353.6,2023.53 1380.3,1962.01 1447.66,1974.47 1547.9,1956.57 1568.69,2009.49 1582.2,1994.76 1607.38,1997.01 1605.59,1995.25 1637.83,1972.26 1671.96,1883.19 1661.38,1833.98 1607.29,1796.88 1591.85,1755.34 1591.76,1732.62 1602.76,1722.96 1603.41,1702.94 1592.83,1689.7 1597.28,1673.75 1546.88,1663.4 1532.05,1606.34 1537.41,1586.27 1556.65,1579.86 1564.24,1564.14 1557.25,1554.86 1565.78,1537.36 1557.64,1527.94 1531.53,1525.53 1542.45,1488.58 1544.6,1456.18 1548.03,1444.64 1511.17,1452.29 1476.22,1450.64 1470.19,1445.64 1457.76,1472.28 1442.99,1476.72 1434.3,1469.63 1393.41,1488.93 1390.04,1522.48 1317.78,1535.45 1302.9,1544.51 1296.79,1582.02 1282.59,1572.22 1266.45,1570.11 1251.96,1580.92 1224.09,1580.8 1211.4,1601.65 1228.53,1615.98 1230.99,1656.83 1225.28,1672.22 1194.84,1665.21 1194,1672.59 1168.11,1684.93 1158.1,1713.96 1129.74,1727.79 1124.82,1743.72 1111.61,1747.59 1086.56,1773.16 1099.77,1781.83 1107.17,1798.21 1104.9,1812.38 1119.38,1825.07 1131.1,1823.45 1146.7,1833.82 1146.69,1903.86 "/>
   <g>
    <g>
     <path id="_49281224" fill="none" stroke="#8C8C60" stroke-width="1.70079" d="M1547.89 1445.16l5.56129 -18.7577 -10.6773 -17.6771 28.2203 -18.7934 19.1874 -1.80454 -8.71682 -61.1941 -29.5129 -84.1774 -24.7598 -36.4995 -18.7175 -50.3819 -45.2276 5.80847 -74.2425 -17.4127 0.492661 16.6371 -14.9791 5.92923 -4.88665 18.328 12.6428 27.1987 18.4476 7.7641 -4.54252 31.2695 -9.36851 1.46013 -0.316063 17.3316 12.5334 9.1338 0.35263 16.7888 -5.46633 4.45663 -18.1074 -5.1497 -18.3362 8.87528 14.7376 22.2007 -1.13357 19.0213 -29.7995 13.0212 -67.4257 -10.6651 -13.8484 -34.3758 -10.294 4.87701 -13.5558 -6.16677 -42.4576 69.1725 -31.138 10.6123 -91.8431 -7.9475 -3.50022 -29.984 -46.4669 29.2768 -53.3534 -3.04923 -3.18444 14.7552 -21.274 11.0449 -14.3493 14.631c0.613134,0.636662 1.22712,1.26964 1.84167,1.89921l0.56863 13.0581 6.95395 0.0337323 4.64485 -4.2772 18.6746 33.2286 -1.01254 12.4186 -8.16406 8.66948 0.0263622 14.6032 -6.29065 7.69436 5.43912 10.031 -0.0952441 31.1355 -8.67742 11.63 4.38208 9.55531 12.3999 7.15918 5.2869 9.67805 3.14277 20.753 9.40649 9.58819 -0.77726 5.68318 -6.40262 -0.301039 -14.3975 -11.6456 -13.3895 -1.1554 -2.35191 6.67361 1.1571 8.52917 19.5216 19.5985 3.92825 11.7652 -5.13298 4.65335 -8.96825 -0.781512 -1.76995 -10.4766 -19.5919 -11.3749 -18.3013 -0.147685 -9.46375 7.36696 -21.4183 0.219118 -7.16485 6.36775 -4.22617 7.66347 -12.3528 1.42838 -5.12362 26.4889 -19.122 13.2951 -10.1665 43.0166 -12.632 9.75827 -0.882142 6.98485 -17.4217 11.5415 -20.2133 21.6652 -3.0138 7.17194 -7.68076 12.602 -0.230173 14.6832 -6.11802 3.30775 -7.51125 -4.97565 -8.96117 13.5643 -7.42479 5.98025 -7.42195 11.3074 57.9138 38.5177 9.42265 37.6251 10.7889 5.61175 4.98416 20.9512 14.754 5.81046 16.4458 49.4442 61.8576 75.3316 17.4872 -2.31987 6.47518 -40.2364 14.7212 -6.11405 46.6662 32.0145 23.5851 0.0742677 9.48784 7.91178 8.91184 18.8152 30.854 -0.217134 16.1351 -45.6508 8.2698 -4.96148 -7.45115 -75.6051 49.7376 -45.9547 34.3981 -11.5855 -10.8363 -13.6287 0.00850394 -70.0421 -15.5965 -10.3757 -11.7232 1.62765 -14.4848 -12.693 2.27452 -14.1761 -7.39559 -16.3775 -13.218 -8.67033 25.0549 -25.5677 13.2109 -3.87468 4.9218 -15.9211 28.3581 -13.8325 10.0086 -29.0276 25.8863 -12.342 0.839622 -7.38482 30.4421 7.01206 5.71351 -15.3882 -2.46359 -40.8538 -17.13 -14.3317 12.6944 -20.844 27.8629 0.123024 14.4975 -10.8105 16.1388 2.10444 14.1999 9.80419 6.10469 -37.5168 14.8839 -9.05726 72.2611 -12.9733 3.36529 -33.5486 40.8943 -19.2986 8.68422 7.09625 14.773 -4.44558 12.433 -26.6423 6.03156 5.00542 34.9498 1.64835 36.7132 -7.13367z"/>
     <polygon id="_49924544" fill="none" stroke="#8C8C60" stroke-width="1.70079" points="855.412,1598.1 861.456,1586.86 894.698,1579.09 903.991,1590.04 913.147,1589.91 919.012,1586.9 924.154,1591.57 923.936,1597.58 911.681,1602.61 899.271,1594.38 889.351,1597.03 896.472,1619.7 887.759,1625.95 877.154,1619.38 865.773,1622.29 "/>
     <polygon id="_47243472" fill="none" stroke="#8C8C60" stroke-width="1.70079" points="936.143,1572.61 944.863,1575.91 946.073,1584.27 939.165,1584.27 932.69,1578.65 "/>
    </g>
    <polygon id="_48245200" fill="none" stroke="#8C8C60" stroke-width="1.70079" points="719.422,1845.65 721.234,1851.98 718.691,1856.56 711.027,1852.04 711.651,1848.67 "/>
   </g>
  </g>
  <g id="_48246376">
   <polygon id="_48241720" fill="none" stroke="#8C8C60" stroke-width="1.70079" points="1364.47,1998.16 1384.02,2019.92 1399.47,2021.09 1403.41,2053 1412.08,2060.04 1405.49,2069.67 1409.41,2106.37 1424.65,2115.36 1425.02,2136.96 1411.45,2161.78 1422.33,2171.54 1445.49,2220.2 1477.89,2236.9 1456.21,2252.63 1473.81,2276.4 1455.29,2301.85 1430.44,2291.02 1426.41,2303.14 1413.39,2306.6 1431.19,2345.87 1443.35,2349.61 1471.15,2375.16 1473.05,2385.73 1487.35,2397.79 1481.32,2412.07 1495.33,2422.1 1509.47,2413.48 1517.87,2423.81 1517.88,2440.44 1536.57,2470.93 1547.66,2531.69 1566.85,2540.08 1574.55,2557.72 1568.21,2565.71 1579.47,2588.56 1566.77,2625.4 1656.31,2576.96 1674.03,2558.62 1713.92,2488.76 1742.64,2444.75 1761.54,2437.36 1796.61,2372.13 1838.12,2240.47 1826.01,2209.9 1791.01,2181.44 1779.43,2141.61 1754.49,2124.39 1722.75,2099.38 1677.97,2079.05 1659.94,2053.59 1607.12,1997.21 1582.07,1994.95 1568.56,2009.67 1547.77,1956.78 1447.53,1974.67 1380.17,1962.22 "/>
   <polygon id="_79667856" fill="none" stroke="#8C8C60" stroke-width="1.70079" points="1140.81,2412.74 1130.31,2420.02 1146.87,2438.3 1132.21,2443.49 1123.55,2480.24 1105.96,2471.3 1081.49,2486.48 1067.68,2514.67 1089.82,2555.3 1083.32,2565.1 1088.47,2619.1 1109.66,2650.31 1104.44,2669.57 1085.76,2663.6 1083.13,2670.65 1073.15,2697.35 1069.68,2729.29 1079.18,2736.03 1079.89,2748.62 1094.31,2762.12 1102.94,2763.37 1104.1,2778.92 1114.92,2774.57 1130.99,2800.04 1146.06,2792.27 1146.32,2776.72 1166.44,2777.13 1166.5,2803.87 1194.41,2817.7 1210.59,2812.22 1232.02,2807.07 1225.02,2792.86 1231.1,2781.08 1213.28,2762.03 1195.1,2764.67 1176.31,2753.43 1182.8,2743.51 1198.08,2744.77 1201.79,2737.79 1239.66,2737.97 1263.49,2752.26 1284.63,2743.59 1317.67,2750.38 1367.22,2746.06 1392.53,2714.78 1400.08,2696.08 1414.27,2706.9 1451.58,2706.67 1456.4,2689.74 1486.85,2691.11 1517.55,2681.29 1536.51,2649.83 1560.68,2641.66 1566.31,2625.64 1566.77,2625.4 1579.47,2588.56 1568.21,2565.71 1574.55,2557.72 1566.85,2540.08 1547.66,2531.69 1536.57,2470.93 1517.88,2440.44 1517.87,2423.81 1509.47,2413.48 1495.33,2422.1 1481.32,2412.07 1487.35,2397.79 1473.05,2385.73 1471.15,2375.16 1443.35,2349.61 1431.19,2345.87 1421.18,2348.79 1395.22,2374.43 1381.57,2374.44 1381.61,2403.76 1369.75,2402.29 1360.37,2417.84 1371.18,2426.04 1364.95,2438.8 1382.62,2438.11 1383.86,2453.11 1400.46,2449.05 1423.33,2477.53 1416.1,2495.25 1370.31,2477.39 1341.85,2480.64 1324.48,2465.32 1298.98,2463.81 1284.29,2438.18 1233.37,2393.9 1208.92,2410.46 1198.36,2397.05 1177.01,2402.37 1171.49,2410.66 1156.62,2404.17 "/>
   <polygon id="_48240600" fill="none" stroke="#8C8C60" stroke-width="1.70079" points="1381.57,2374.44 1395.22,2374.43 1421.18,2348.79 1431.19,2345.87 1413.39,2306.6 1426.41,2303.14 1430.44,2291.02 1455.29,2301.85 1473.81,2276.4 1456.21,2252.63 1477.89,2236.9 1445.49,2220.2 1422.33,2171.54 1411.45,2161.78 1425.02,2136.96 1424.65,2115.36 1409.41,2106.37 1405.49,2069.67 1412.08,2060.04 1403.41,2053 1399.47,2021.09 1384.02,2019.92 1364.47,1998.16 1353.56,2023.48 1313.43,1977.19 1251.78,1937.73 1200.7,1933.84 1157.53,1917.49 1123.13,1929.08 1073.4,1975.11 1080.84,2050.64 1072.57,2055.6 1056.44,2101.25 1049.4,2127.19 1060,2141.64 1063.34,2194.65 1083.8,2222.82 1071.62,2230.96 1081.26,2240.5 1073.24,2254.01 1043.93,2257.82 1085.65,2309.98 1097.94,2306.95 1115.69,2334.05 1120.58,2362.73 1101,2383.68 1101.04,2392.17 1123.33,2406.44 1134.16,2405.05 1140.81,2412.74 1156.62,2404.17 1171.49,2410.66 1177.01,2402.37 1198.36,2397.05 1208.92,2410.46 1233.37,2393.9 1284.29,2438.18 1298.98,2463.81 1324.48,2465.32 1341.85,2480.64 1370.31,2477.39 1416.1,2495.25 1423.33,2477.53 1400.46,2449.05 1383.86,2453.11 1382.62,2438.11 1364.95,2438.8 1371.18,2426.04 1360.37,2417.84 1369.75,2402.29 1381.61,2403.76 "/>
  </g>
  <g id="_49053376">
   <polygon id="_48845320" fill="none" stroke="#8C8C60" stroke-width="1.70079" points="746.115,2422.77 746.217,2450.91 767.573,2463.68 778.785,2461.57 786.498,2483.6 807.035,2487.68 819.848,2483.08 842.243,2506.86 849.37,2533.01 834.988,2556 830.71,2548.39 817.316,2567.8 851.391,2610.37 858.408,2611.6 858.322,2617.98 851.145,2618.43 848.959,2612.33 843.458,2616.01 846.317,2625.73 845.195,2637.76 852.743,2642.29 855.165,2640.92 865.096,2646.83 855.413,2653.6 851.126,2663.04 853.274,2675.82 871.661,2690.99 870.471,2714.38 947.476,2707.15 963.05,2651.08 986.438,2640.35 998.847,2646.25 1015.13,2618.1 1033.29,2627.23 1054.06,2659.23 1083.26,2670.95 1085.89,2663.9 1104.57,2669.88 1109.79,2650.6 1088.6,2619.36 1083.45,2565.32 1089.95,2555.52 1067.81,2514.86 1081.62,2486.65 1106.09,2471.45 1123.68,2480.4 1132.34,2443.63 1147,2438.44 1130.44,2420.14 1140.94,2412.86 1134.29,2405.16 1123.46,2406.56 1101.17,2392.27 1101.13,2383.78 1120.71,2362.81 1115.82,2334.11 1098.07,2306.99 1085.78,2310.02 1044.06,2257.83 1073.37,2254.01 1081.39,2240.49 1071.75,2230.95 1083.93,2222.8 1063.47,2194.61 1060,2141.64 1049.53,2127.1 1056.44,2101.25 1025.58,2101.47 1016.67,2082.65 1007.18,2074.74 983.599,2074.67 936.933,2042.65 922.212,2048.77 915.737,2089 897.721,2091.04 885.474,2093.13 861.474,2118.7 858.932,2188.15 836.032,2183.16 809.76,2192.85 803.606,2196.89 793.52,2211.09 798.228,2249.27 811.39,2266.93 802.35,2274.01 824.744,2335.03 819.227,2342.88 826.766,2353.18 821.082,2391.8 798.948,2392.14 792.866,2403.31 766.571,2399.5 "/>
   <polygon id="_48364288" fill="none" stroke="#8C8C60" stroke-width="1.70079" points="391.711,2510.94 405.079,2523.18 438.417,2529.09 476.855,2496.4 488.63,2496.35 509.282,2464.65 524.83,2464.12 538.153,2436.93 556.466,2446.03 567.727,2446.12 596.497,2446.22 627.944,2429.05 642.282,2403.76 669.988,2414.58 673.861,2404.78 694.74,2407.76 720.488,2386.56 732.005,2393.89 734.948,2418.12 746.287,2422.83 766.571,2399.5 792.866,2403.31 798.948,2392.14 821.082,2391.8 826.766,2353.18 819.227,2342.88 824.744,2335.03 802.35,2274.01 811.39,2266.93 798.228,2249.27 793.52,2211.09 803.885,2196.68 774.457,2182.77 787.446,2177.41 762.154,2145.45 737.577,2138.07 710.355,2102.27 696.179,2084.91 678.641,2076.47 654.694,2076.14 645.619,2102.77 633.617,2113.31 616.313,2108.33 583.528,2114.1 552.41,2129.26 552.047,2153.64 560.044,2153.91 566.407,2181.84 550.096,2181.64 515.887,2240.93 518.402,2257.91 488.978,2288.84 452.33,2276.65 428.865,2252.17 422.226,2259.92 418.698,2296.33 426.159,2303.86 401.881,2330.19 382.459,2387.63 390.092,2406.49 401.069,2410.11 401.638,2438.36 408.268,2441.21 415.467,2451.71 400.359,2461.35 403.155,2475.77 394.95,2482.26 "/>
   <g>
    <polygon id="_47006072" fill="none" stroke="#8C8C60" stroke-width="1.70079" points="574.796,1964.89 573.604,1978.84 570.053,1982.51 567.457,1985.19 562.708,1975.69 566.392,1963.71 567.889,1958.84 "/>
    <polygon id="_47003752" fill="none" stroke="#8C8C60" stroke-width="1.70079" points="458.665,2069.01 458.335,2077.34 453.787,2078.52 450.462,2079.38 445.713,2067.71 452.16,2065.87 454.779,2065.12 "/>
    <polygon id="_48973416" fill="none" stroke="#8C8C60" stroke-width="1.70079" points="486.295,2091.91 491.864,2097.12 489.919,2100.38 488.496,2102.76 478.626,2103.26 473.948,2106.86 472.048,2108.32 467.299,2107.89 477.229,2091.91 "/>
    <polygon id="_48993296" fill="none" stroke="#8C8C60" stroke-width="1.70079" points="505.722,2111.78 506.543,2121.75 503.35,2127.75 501.016,2132.14 487.692,2125.73 479.638,2125.95 476.365,2126.04 472.48,2117.4 485.431,2109.19 499.269,2115.05 "/>
    <polygon id="_47005352" fill="none" stroke="#8C8C60" stroke-width="1.70079" points="431.898,2108.32 443.944,2118.72 442.746,2122.48 441.871,2125.23 434.591,2118.38 431.141,2125.97 429.74,2129.06 424.127,2127.76 424.127,2117.4 "/>
    <polygon id="_47006464" fill="none" stroke="#8C8C60" stroke-width="1.70079" points="366.709,2080.67 372.279,2080.7 372.363,2086.25 372.424,2090.3 366.277,2099.68 360.445,2099.68 358.075,2099.68 361.528,2090.61 "/>
    <polygon id="_48991088" fill="none" stroke="#8C8C60" stroke-width="1.70079" points="383.114,2089.31 390.411,2089.34 392.489,2094.14 394.01,2097.64 387.863,2105.73 380.495,2105.73 377.502,2105.73 372.753,2097.52 "/>
    <polygon id="_48989600" fill="none" stroke="#8C8C60" stroke-width="1.70079" points="371.458,2110.48 371.634,2117.48 368.044,2120.93 365.42,2123.44 368.686,2129.13 375.902,2129.36 378.835,2129.46 382.736,2121.16 391.104,2123.44 397.908,2138.24 393.795,2148.94 382.57,2144.99 376.164,2155.01 367.243,2152.94 361.097,2147.21 354.189,2146.77 344.692,2110.48 351.167,2108.32 356.328,2114.13 365.362,2105.08 "/>
    <polygon id="_48988312" fill="none" stroke="#8C8C60" stroke-width="1.70079" points="303.678,2195.59 310.112,2198.22 309.946,2202.51 309.825,2205.65 307.132,2211.15 302.834,2211.15 301.088,2211.15 297.634,2204.67 "/>
    <polygon id="_48987584" fill="none" stroke="#8C8C60" stroke-width="1.70079" points="350.304,2196.46 357.083,2201.97 357.631,2206.29 358.032,2209.45 356.019,2218.61 351.955,2218.53 350.304,2218.49 344.692,2213.74 344.692,2199.91 "/>
    <polygon id="_48986864" fill="none" stroke="#8C8C60" stroke-width="1.70079" points="338.648,2247 347.671,2242.71 349.999,2247.76 351.701,2251.45 345.987,2255.64 342.303,2258.72 340.806,2259.96 333.467,2255.64 "/>
    <polygon id="_48985600" fill="none" stroke="#8C8C60" stroke-width="1.70079" points="324.833,2278.54 328.676,2277.71 332.001,2284.5 334.433,2289.47 332.603,2292.37 327.999,2292.67 326.128,2292.8 323.969,2288.48 "/>
    <polygon id="_48984592" fill="none" stroke="#8C8C60" stroke-width="1.70079" points="323.063,2333.87 329.684,2341.31 329.874,2343.73 330.013,2345.51 323.106,2349.4 319.422,2345.71 317.925,2344.21 320.043,2338.14 "/>
    <polygon id="_48983056" fill="none" stroke="#8C8C60" stroke-width="1.70079" points="710.355,2102.27 718.201,2076.92 697.781,2039.87 689.365,2042.26 680.295,2026.23 694.036,2017.34 704.791,2026.11 722.052,2025.71 730.425,2016.74 693.65,1987.17 683.027,1995.41 676.979,1986.41 653.888,1997.67 621.194,1973.26 614.972,1981.69 600.863,1942.74 591.72,1956.42 581.852,1962.95 584.6,1979.05 583.04,1990.84 570.978,1998.54 569.145,2007.2 562.478,2010.08 552.901,2018.33 551.895,2023.2 542.926,2029.75 539.155,2046.26 532.601,2037.66 525.783,2041.4 520.831,2062.85 513.231,2063.3 509.276,2068.54 511.665,2076.28 517.167,2081.81 529.243,2108.91 524.828,2119.64 513.762,2119.86 505.656,2135.24 492.716,2138.27 458.153,2125.88 433.547,2136.24 422.081,2136.49 417.245,2122.04 409.215,2130.19 408.449,2151.86 400.061,2162.28 401.29,2170.13 411.186,2178.75 414.313,2186.49 409.182,2188.48 400.044,2186.05 393.724,2188.11 383.771,2181.5 379.131,2189.04 389.596,2197.02 394.061,2206.62 393.001,2218.35 382.519,2228.3 383.826,2238.68 379.557,2243.04 368.312,2244.32 367.6,2238.82 356.646,2242.59 353.669,2260.65 347.967,2266.75 336.684,2266.16 335.49,2270.98 342.182,2278.6 341.215,2287.28 334.833,2293.07 329.931,2298.82 326.707,2319.37 330.524,2323.97 337.309,2318.26 342.477,2322.13 343.494,2328.64 333.626,2344.77 331.429,2363.41 336.037,2368.3 330.056,2392.12 336.5,2402.11 358.174,2403.18 357.528,2410.26 347.355,2423.82 347.392,2435.08 362.311,2440.91 363.884,2448.98 351.998,2461.69 352.456,2472.92 344.748,2485.54 337.537,2512.92 345.369,2525.92 346.016,2528.32 361.145,2514.53 391.711,2510.94 394.95,2482.26 403.155,2475.77 400.359,2461.35 415.467,2451.71 408.268,2441.21 401.638,2438.36 401.069,2410.11 390.092,2406.49 382.459,2387.63 401.881,2330.19 426.159,2303.86 418.698,2296.33 422.226,2259.92 428.865,2252.17 452.33,2276.65 488.978,2288.84 518.402,2257.91 515.887,2240.93 550.096,2181.64 566.407,2181.84 560.044,2153.91 552.047,2153.64 552.41,2129.26 583.528,2114.1 616.313,2108.33 633.617,2113.31 645.619,2102.77 654.694,2076.14 678.641,2076.47 696.179,2084.91 "/>
   </g>
   <polygon id="_48981160" fill="none" stroke="#8C8C60" stroke-width="1.70079" points="746.287,2422.83 734.948,2418.12 732.005,2393.89 720.488,2386.56 694.74,2407.76 673.861,2404.78 669.988,2414.58 642.282,2403.76 627.944,2429.05 596.497,2446.22 567.856,2445.98 567.866,2476.26 552.355,2483.74 551.478,2509.87 533.384,2511.62 524.197,2527.01 538.003,2533.79 538.018,2547.52 553.406,2559.03 559.529,2580.77 550.864,2611.05 537.798,2606.8 533.345,2629.85 544.528,2640.63 530.738,2652.27 521.386,2681.1 540.762,2694.65 538.12,2707.71 513.801,2711.27 504.58,2718.27 505.477,2731.65 518.55,2763.6 544.698,2772.28 553.254,2762.97 568.197,2778.22 561.367,2802.19 573.681,2823.47 563.572,2825.06 575.262,2838.82 594.649,2835.04 593.303,2845.51 601.234,2844 611.52,2837.7 625.785,2848.52 628.063,2858.52 642.525,2858.3 672.437,2846.9 692.913,2869.27 698.025,2864.26 693.802,2831.88 762.587,2805.78 763.478,2793.3 750.693,2771.76 778.483,2782.23 804.484,2760.7 829.275,2770.34 834.691,2758.1 846.459,2769.86 864.04,2761.99 861.843,2709.39 870.471,2714.38 871.661,2690.99 853.274,2675.82 851.126,2663.04 855.413,2653.6 865.096,2646.83 855.165,2640.92 852.743,2642.29 845.195,2637.76 846.317,2625.72 843.458,2616.01 848.959,2612.33 851.145,2618.43 858.322,2617.98 858.408,2611.6 851.391,2610.37 817.316,2567.8 830.71,2548.39 834.988,2556 849.37,2533.01 842.243,2506.86 819.848,2483.08 807.035,2487.68 786.498,2483.6 778.785,2461.57 767.573,2463.68 746.217,2450.91 "/>
   <path id="_48979672" fill="none" stroke="#8C8C60" stroke-width="1.70079" d="M328.244 2758.13l5.84646 3.66435 0.886677 4.10428 0.648567 3.00161 -3.88545 5.18428 -3.9909 0.306992 -1.62142 0.125008 -2.6314 -9.95556 1.44255 -2.7686 3.30491 -3.66236zm21.1541 -140.842l4.89373 1.38869 5.6761 10.4097 4.15106 7.61244 -4.68397 5.20951 -7.10702 -0.0181417 -2.88737 -0.00708662 -6.90747 -7.34457 5.1395 -5.20328 1.72545 -12.0472zm-19.561 187.735l6.85899 -13.7786 7.34032 -41.8981 7.52684 5.01279 3.8143 -4.84413 -0.789732 -6.58545 4.71742 -24.3862 -10.2617 -24.0571 1.93663 -3.02088 4.69162 -1.53184 7.02057 2.74706 5.40624 -0.987024 -3.63458 -8.88208 -11.2263 -5.92101 -0.872504 -7.91773 7.56284 0.297354 11.9169 3.51354 -0.339024 -4.48441 -6.58347 -5.32261 -7.06649 -14.347 2.98261 -5.66362 5.58284 0.400252 8.87556 10.12 6.66199 0.232441 -12.9033 -28.9726 0.0107717 -26.2755 -13.3991 -17.3497 2.69263 -5.93575 7.84517 -0.831402 0.508536 -4.65846 -6.01824 -4.6817 -3.69751 -23.5831 -8.92488 -5.4754 -2.05654 -7.632 15.1288 -13.7863 30.5663 -3.59093 13.3679 12.2372 33.3383 5.91506 38.4378 -32.6928 11.7751 -0.0541417 20.6521 -31.6981 15.5472 -0.530646 13.3237 -27.1843 18.3127 9.09326 11.3896 -0.048189 0.0107717 30.2786 -15.5115 7.48658 -0.877323 26.1207 -18.0935 1.7589 -9.1868 15.3845 13.8059 6.78217 0.0153071 13.7288 15.3873 11.5152 6.12284 21.7372 -8.66466 30.2754 -13.0657 -4.24687 -4.45351 23.0505 11.1832 10.7785 -13.7903 11.6362 -9.35206 28.8318 19.3762 13.5558 -2.64189 13.0581 -24.3193 3.56258 -9.22025 6.99364 0.896315 13.3818 13.0734 31.9493 26.1482 8.67657 8.55553 -9.30388 14.9428 15.2529 -6.8298 23.9644 12.3146 21.2786 -10.1095 1.5925 -15.5565 -5.21887 -2.01402 26.9371 -24.9421 -6.83235 -23.5094 7.13764 5.14998 6.49021 -26.4404 7.01263 -18.9261 -3.55124 -15.8264 14.2384 -5.55477 -8.18277 -26.86 -2.59739 -10.4499 -29.3924 -11.4678 -10.347 -20.9582 15.1404 -1.08652 -25.8803 -13.0238 9.80334 -11.1569 0.861732 -11.1121 -15.6594z"/>
   <g>
    <polygon id="_48978344" fill="none" stroke="#8C8C60" stroke-width="1.70079" points="601.131,2844.5 593.303,2845.51 594.649,2835.04 575.262,2838.82 563.572,2825.06 548.015,2819.84 546.001,2846.78 521.059,2839.95 497.55,2847.08 502.7,2853.57 476.259,2860.59 457.333,2857.03 441.507,2871.27 435.952,2863.09 409.092,2860.49 398.642,2831.1 387.174,2820.75 366.216,2835.89 365.13,2810.01 352.106,2819.82 340.949,2820.68 329.734,2804.87 325.226,2798.21 316.942,2802.83 321.275,2826.62 332.196,2837.95 329.946,2845.67 323.123,2840.27 316.677,2827.31 309.368,2827.79 305.547,2831.79 312.036,2838.73 311.581,2846.54 298.277,2849.22 299.131,2854.87 314.312,2864.07 312.74,2869.12 309.525,2871.32 307.685,2876.72 310.103,2885.87 310.639,2898.99 315.733,2907.07 315.413,2925.04 326.393,2953.83 340.669,2966.38 345.016,2985.02 356.169,2984.02 361.125,2962.54 381.275,2951.73 388.042,2954.77 381.158,2972.54 373.265,2971.78 366.007,2981.98 365.246,2989.96 381.855,2985.9 403.129,2985.24 411.138,2992.98 410.744,3000.89 403.309,3000.52 400.102,3004.5 410.995,3014.44 419.829,3008.75 423.318,3011.49 421.646,3032.46 429.671,3032.97 439.58,3042.37 477.244,3035.11 482.838,3030.26 491.801,3037.08 477.083,3060.6 477.122,3070.23 492.81,3069.85 502.648,3078.75 525.556,3072 560.993,3044.61 566.573,3053.91 558.089,3064.25 537.207,3089.7 541.192,3110.79 547.883,3114.82 557.033,3120.33 556.5,3124.87 581.486,3124.41 600.299,3104.72 609.92,3112.37 638.534,3098.16 654.547,3105.66 653.447,3071.5 668.349,3066.37 671.298,3046.62 681.15,3045.58 677.959,3026.37 667.793,3022.24 669.117,3008.47 692.299,3005.29 703.359,2980.54 697.853,2971.1 702.724,2964.13 671.289,2953.72 635.826,2926.5 616.634,2936.08 591.302,2923.08 590.541,2911.15 597.345,2905.06 589.105,2895.43 590.499,2881.52 605.063,2878.55 613.213,2859.55 601.022,2852.26 "/>
    <polygon id="_48977320" fill="none" stroke="#8C8C60" stroke-width="1.70079" points="293.941,2955.34 306.7,2974.54 306.7,2980.28 306.7,2984.48 298.066,2984.48 294.353,2979.55 292.844,2977.55 290.355,2958.31 "/>
    <polygon id="_48975752" fill="none" stroke="#8C8C60" stroke-width="1.70079" points="315.958,2957.93 326.991,2969.36 327.262,2970.34 327.461,2971.05 334.33,2977.57 331.26,2986.78 330.013,2990.53 323.13,2989.03 311.408,2974.09 311.509,2961.76 "/>
    <polygon id="_48975032" fill="none" stroke="#8C8C60" stroke-width="1.70079" points="301.712,2930.28 308.427,2935.23 308.926,2943.96 309.291,2950.35 302.383,2957.26 295.907,2950.49 293.276,2947.74 292.082,2937.14 "/>
    <polygon id="_48991808" fill="none" stroke="#8C8C60" stroke-width="1.70079" points="330.073,3187.96 339.846,3188.42 340.63,3191.12 341.204,3193.09 333.48,3198.2 329.165,3201.65 327.412,3203.05 319.661,3199.08 "/>
    <polygon id="_48949288" fill="none" stroke="#8C8C60" stroke-width="1.70079" points="360.725,3150.38 366.612,3156.02 366.648,3163.7 366.675,3169.32 363.7,3173.58 357.543,3173.03 355.042,3172.81 351.608,3162.79 356.398,3157.33 "/>
    <polygon id="_48971312" fill="none" stroke="#8C8C60" stroke-width="1.70079" points="284.875,2997.25 289.799,3007.01 287.343,3012.46 285.546,3016.45 278.207,3010.83 279.17,3003.59 279.562,3000.64 "/>
    <polygon id="_48969864" fill="none" stroke="#8C8C60" stroke-width="1.70079" points="300.848,3017.12 307.068,3026.02 305.858,3028.23 304.974,3029.84 295.908,3030.71 292.838,3026.71 291.59,3025.09 294.24,3017.93 "/>
    <polygon id="_48968416" fill="none" stroke="#8C8C60" stroke-width="1.70079" points="317.685,3003.73 319.652,3017.74 317.8,3018.37 316.447,3018.83 313.608,3023.36 310.538,3019.06 309.291,3017.31 310.645,3004.53 "/>
    <polygon id="_48966832" fill="none" stroke="#8C8C60" stroke-width="1.70079" points="352.654,2997.68 354.621,3004.35 351.263,3009.02 348.807,3012.44 346.235,3017.1 341.454,3017.25 339.511,3017.31 337.352,3015.15 337.412,3007.12 "/>
    <polygon id="_48965384" fill="none" stroke="#8C8C60" stroke-width="1.70079" points="296.963,3060.75 302.751,3067.49 313.012,3067.21 320.515,3067 320.071,3074.18 319.334,3079.7 319.035,3081.94 313.34,3083.8 307.132,3086.44 287.273,3079.53 290.355,3061.56 "/>
    <polygon id="_48963936" fill="none" stroke="#8C8C60" stroke-width="1.70079" points="350.064,3078.9 350.24,3086.07 349.204,3090.5 348.447,3093.75 347.881,3099.66 346.218,3102.43 345.542,3103.55 339.326,3107.86 326.291,3108.43 320.515,3101.13 328.286,3093.35 329.286,3091.41 339.57,3079.71 "/>
    <polygon id="_48962488" fill="none" stroke="#8C8C60" stroke-width="1.70079" points="320.275,3047.79 319.22,3057.92 315.729,3061.92 313.176,3064.84 307.737,3063.63 304.544,3061.41 303.247,3060.52 306.515,3057.23 307.13,3054.9 312.804,3049.03 "/>
    <polygon id="_48961040" fill="none" stroke="#8C8C60" stroke-width="1.70079" points="337.544,3048.66 348.309,3070.84 341.731,3074.36 336.921,3076.93 331.308,3072.61 331.658,3058 331.8,3052.06 "/>
    <polygon id="_48959592" fill="none" stroke="#8C8C60" stroke-width="1.70079" points="391.077,3000.27 392.18,3005.65 402.02,3019.7 409.216,3029.98 407.241,3038.91 406.71,3045.07 406.494,3047.57 399.242,3054.79 389.652,3053.18 390.225,3046.71 392.182,3036.06 382.912,3028.43 374.912,3010.4 376.639,2997.87 381.015,2994.16 "/>
    <polygon id="_47969456" fill="none" stroke="#8C8C60" stroke-width="1.70079" points="381.147,3077.6 391.253,3084.77 388.721,3088.46 386.87,3091.15 375.511,3094.05 368.814,3103.87 366.092,3107.86 358.238,3104.97 360.655,3088.24 363.255,3077.8 "/>
    <polygon id="_48373648" fill="none" stroke="#8C8C60" stroke-width="1.70079" points="370.354,3027.92 371.458,3034.16 371.84,3037.34 372.12,3039.66 361.96,3041.94 355.513,3036.1 352.894,3033.73 354.001,3027.78 356.839,3023.54 "/>
    <polygon id="_48955456" fill="none" stroke="#8C8C60" stroke-width="1.70079" points="402.478,3107.24 400.551,3112.62 386.584,3112.45 376.37,3112.31 373.175,3106.82 379.936,3100.31 382.683,3097.67 "/>
    <polygon id="_48954008" fill="none" stroke="#8C8C60" stroke-width="1.70079" points="418.451,3082.61 413.071,3095.77 404.34,3096.84 397.956,3097.63 397.783,3087.38 408.534,3081.49 412.903,3079.09 "/>
    <polygon id="_48973536" fill="none" stroke="#8C8C60" stroke-width="1.70079" points="476.557,3040.45 481.546,3048.42 461.597,3071.23 447.01,3087.91 437.532,3088.73 432.769,3083.33 430.833,3081.13 432.456,3072.06 421.355,3068.87 418.947,3059.65 426.418,3045.43 438.374,3048.42 448.795,3047.3 "/>
    <polygon id="_48950944" fill="none" stroke="#8C8C60" stroke-width="1.70079" points="466.372,3090.39 458.089,3102.31 457.288,3101.94 456.703,3101.67 451.007,3108.31 445.52,3108.3 443.291,3108.3 438.538,3103.24 451.748,3087.38 460.823,3086.87 "/>
    <polygon id="_48949392" fill="none" stroke="#8C8C60" stroke-width="1.70079" points="498.239,3169.71 494.694,3174.68 486.448,3173.02 480.418,3171.81 475.234,3160.7 478.487,3158.02 479.809,3156.94 490.612,3158.59 "/>
    <polygon id="_48994336" fill="none" stroke="#8C8C60" stroke-width="1.70079" points="463.27,3164.95 461.883,3171.22 455.383,3171.06 450.63,3170.95 448.467,3160.27 451.436,3157.56 452.643,3156.45 453.518,3155.96 456.928,3153.05 463.845,3157.29 "/>
    <polygon id="_48597784" fill="none" stroke="#8C8C60" stroke-width="1.70079" points="477.085,3193.47 464.877,3202.05 458.141,3199.13 453.216,3196.99 465.994,3183.72 474.29,3184.28 477.66,3184.51 "/>
    <polygon id="_48597048" fill="none" stroke="#8C8C60" stroke-width="1.70079" points="545.727,3128.66 537.002,3130.18 535.736,3127.6 534.81,3125.71 542.408,3118.05 547.326,3119.84 549.325,3120.57 "/>
    <polygon id="_48596256" fill="none" stroke="#8C8C60" stroke-width="1.70079" points="528.459,3153.72 524.449,3142.13 530.084,3137.45 534.205,3134.04 542.418,3146.49 537.913,3149.14 536.083,3150.22 "/>
    <polygon id="_49056656" fill="none" stroke="#8C8C60" stroke-width="1.70079" points="543.473,3074.15 528.171,3095.51 533.118,3106.71 536.736,3114.9 521.456,3131.35 521.627,3138.24 521.697,3141.04 515.675,3149.44 503.153,3151.37 487.626,3145.06 477.636,3151.36 462.275,3150.43 454.146,3138.16 457.064,3123.9 474.025,3110.78 472.911,3104.15 467,3096.84 472.911,3091.62 472.971,3085.75 477.236,3081.48 486.309,3087.81 "/>
   </g>
   <g>
    <path id="_49055696" fill="none" stroke="#8C8C60" stroke-width="1.70079" d="M897.721 2091.04l-61.3287 -75.0501 -16.4458 -49.4442 -14.754 -5.81046 -4.98416 -20.9509 -10.7889 -5.61203 -9.42265 -37.6251 -58.0703 -38.2796 -9.67068 14.7345 -1.20246 23.4924 -9.48699 1.65146 -11.8236 -11.2827 -7.99058 5.69594 -1.05165 45.7401 -47.806 2.16283 -5.84844 8.54617 -6.59197 0.147685 -5.9692 -7.18951 -13.053 -0.0768189c-0.329386,0.492661 -0.40337,0.0399685 -0.731906,0.532063l14.273 39.2624 6.22148 -8.42882 32.694 24.414 23.091 -11.2601 6.04828 8.99632 10.6223 -8.23862 36.7753 29.5685 -8.37241 8.97704 -17.2613 0.394016 -10.7546 -8.76529 -13.7418 8.88718 9.07002 16.0325 8.41606 -2.39613 20.4205 37.0576 -7.79584 26.0127 27.1715 35.1312 24.5772 7.38369 25.2918 31.9601 -12.9889 5.36145 29.4284 13.9119 5.8748 -3.83102 26.2718 -9.69421 22.9003 4.99011 2.54126 -69.4514 24.0001 -25.5705 12.2468 -2.0863z"/>
    <polygon id="_49054904" fill="none" stroke="#8C8C60" stroke-width="1.70079" points="718.691,1856.56 716.831,1859.91 709.492,1860.34 711.027,1852.04 "/>
   </g>
  </g>
  <g id="_48881432">
   <polygon id="_49013872" fill="none" stroke="#8C8C60" stroke-width="1.70079" points="896.425,2916.22 886.578,2903.58 896.631,2895.09 879.104,2873.78 886.516,2843.51 913.982,2827.14 911.795,2789.77 897.049,2778.38 885.515,2783.83 888.711,2771.86 864.04,2761.99 861.843,2709.39 870.471,2714.38 947.476,2707.15 963.05,2651.08 986.438,2640.35 998.847,2646.25 1015.13,2618.1 1033.29,2627.23 1054.06,2659.23 1083.36,2670.83 1073.28,2697.67 1069.81,2729.63 1079.31,2736.39 1080.02,2748.98 1094.44,2762.49 1103.07,2763.74 1104.23,2779.31 1094.97,2784.45 1087.07,2805.18 1066.03,2819.42 1044.23,2819.35 1040.53,2832.74 1046.35,2845.33 1050.73,2867.78 1038.29,2867.02 1032.89,2877.32 1048.93,2884.2 1041.19,2898.89 1041.79,2915.84 1055.36,2924.83 1057.59,2940.54 1061.88,2942.68 1060.23,2956.58 1047.02,2963.66 1034.34,2952.28 1014.45,2956.62 1013.68,2942.87 1000.34,2952.29 991.773,2950.88 963.633,2959.6 956.606,2950.81 955.139,2951.64 948.138,2926.24 943.406,2922.02 927.571,2938.6 907.143,2913.76 "/>
   <g>
    <polygon id="_49013664" fill="none" stroke="#8C8C60" stroke-width="1.70079" points="900.695,3102.9 892.952,3113.41 882.151,3110.07 883.845,3122.61 873.039,3131.75 870.922,3120.09 866.156,3127.65 852.037,3127.45 841.993,3120.6 815.233,3130 810.023,3124.78 807.876,3129.9 807.915,3139.79 778.553,3176.68 769.043,3175.94 781.98,3158.97 775.962,3155.49 769.031,3161.53 764.3,3161.48 765.222,3142.32 743.153,3154.52 712.927,3155.18 676.242,3170.9 658.139,3172.56 660.687,3181.87 654.24,3186.8 641.702,3184.08 625.74,3187.49 617.955,3181.94 605.876,3180.38 595.951,3191.38 595.949,3198.56 583.002,3209.62 557.96,3209.42 537.239,3218.03 530.321,3209.29 536.797,3201.99 564.436,3192.24 570.044,3185.48 572.628,3166.2 567.866,3158.83 562.257,3163.35 561.839,3179.17 557.102,3183.79 539.38,3180.7 529.662,3167.86 532.061,3156.11 543.283,3155.62 552.346,3160.3 556.5,3124.87 556.233,3124.89 581.486,3124.41 600.299,3104.72 609.92,3112.37 638.534,3098.16 654.547,3105.66 653.447,3071.5 668.349,3066.37 671.298,3046.62 681.15,3045.58 677.959,3026.37 667.793,3022.24 669.117,3008.47 692.299,3005.29 703.359,2980.54 697.853,2971.1 702.724,2964.13 748.372,2971.99 754.001,2984.46 764.808,2976.18 775.923,2981.48 778.643,2991.84 806.563,2986.35 805.347,2972.01 813.204,2961.43 830.763,2964.04 870.553,2955.82 886.923,2961.49 897.29,2942.58 886.409,2938.88 896.429,2916.2 907.143,2913.76 927.571,2938.6 943.406,2922.02 948.138,2926.24 955.139,2951.64 935.851,2964.39 948.575,2989.64 943.88,3004.71 934.559,3005.47 941.026,3028.59 949.592,3037.22 928.841,3047.33 904.621,3018.38 897.925,3025.49 902.497,3047.97 889.56,3068.74 903.364,3081.54 892.311,3097.27 "/>
    <polygon id="_49012872" fill="none" stroke="#8C8C60" stroke-width="1.70079" points="616.529,3206 611.001,3204.52 606.907,3201.75 612.346,3195.39 619.691,3196.9 629.193,3194.44 625.88,3202.06 621.483,3203.23 "/>
    <polygon id="_49012080" fill="none" stroke="#8C8C60" stroke-width="1.70079" points="695.101,3182.24 686.775,3177.98 692.214,3168.17 699.167,3164.06 705.602,3164.06 708.747,3165.84 714.382,3165.77 703.94,3174.72 "/>
   </g>
   <polygon id="_49010416" fill="none" stroke="#8C8C60" stroke-width="1.70079" points="864.04,2761.99 846.459,2769.86 834.691,2758.1 829.275,2770.34 804.484,2760.7 778.483,2782.23 750.693,2771.76 763.478,2793.3 762.587,2805.78 693.802,2831.88 698.025,2864.26 692.913,2869.27 672.437,2846.9 642.525,2858.3 628.063,2858.52 625.785,2848.52 611.52,2837.7 601.234,2844 601.022,2852.26 613.213,2859.55 605.063,2878.55 590.499,2881.52 589.105,2895.43 597.345,2905.06 590.541,2911.15 591.302,2923.08 616.634,2936.08 635.826,2926.5 671.289,2953.72 702.724,2964.13 748.372,2971.99 754.001,2984.46 764.808,2976.18 775.923,2981.48 778.643,2991.84 806.563,2986.35 805.347,2972.01 813.204,2961.43 830.763,2964.04 870.553,2955.82 886.923,2961.49 897.29,2942.58 886.409,2938.88 896.429,2916.2 886.578,2903.58 896.631,2895.09 879.104,2873.78 886.516,2843.51 913.982,2827.14 911.795,2789.77 897.049,2778.38 885.515,2783.83 888.711,2771.86 "/>
   <polygon id="_49004352" fill="none" stroke="#8C8C60" stroke-width="1.70079" points="1336.52,2969.11 1318.56,2959.93 1310.72,2940.64 1294.49,2938.23 1287.2,2923.45 1265.55,2923.98 1246.43,2913.8 1239.54,2901.7 1213.98,2894.24 1206.33,2881.17 1214.32,2876.4 1199.89,2858.79 1204.99,2841.58 1220.87,2835.67 1210.72,2812.63 1232.15,2807.48 1225.15,2793.26 1231.23,2781.47 1213.41,2762.4 1195.23,2765.05 1176.44,2753.8 1182.93,2743.86 1198.21,2745.13 1201.92,2738.14 1239.79,2738.32 1263.62,2752.62 1284.76,2743.95 1317.8,2750.74 1367.35,2746.42 1392.66,2715.11 1400.21,2696.4 1414.4,2707.23 1451.71,2707 1456.53,2690.06 1486.98,2691.43 1517.68,2681.6 1536.64,2650.12 1560.81,2641.94 1566.44,2625.91 1655.76,2577.95 1652.86,2580.91 1640.92,2614.69 1610.92,2642.31 1590.74,2684.67 1565.32,2702.68 1559.58,2720.44 1521.84,2784.07 1477.67,2814.72 1461.87,2821.15 1442.9,2853.64 1440.5,2874.94 1420.09,2879.49 1381.85,2912.96 1374.51,2932.58 "/>
   <g>
    <polygon id="_49004024" fill="none" stroke="#8C8C60" stroke-width="1.70079" points="1101.49,3035.03 1102.89,3011.96 1123.59,2990.26 1137.04,2989.94 1130.85,2973.55 1120.31,2972.88 1114.08,2984.93 1100.47,2983.63 1095.19,2970.61 1085.65,2970.31 1077.68,2950.18 1061.43,2942.38 1057.59,2940.54 1055.36,2924.83 1041.79,2915.84 1041.19,2898.89 1048.93,2884.2 1032.89,2877.32 1038.29,2867.02 1050.73,2867.78 1046.35,2845.33 1040.53,2832.74 1044.23,2819.35 1066.03,2819.42 1087.07,2805.18 1094.97,2784.45 1104.23,2779.31 1115.05,2774.95 1131.12,2800.44 1146.19,2792.66 1146.45,2777.1 1166.57,2777.52 1166.63,2804.27 1194.54,2818.11 1210.74,2812.67 1220.87,2835.67 1204.99,2841.58 1199.89,2858.79 1214.32,2876.4 1206.33,2881.17 1213.98,2894.24 1239.54,2901.7 1246.43,2913.8 1265.55,2923.98 1287.2,2923.45 1294.49,2938.23 1310.72,2940.64 1318.56,2959.93 1336.52,2969.11 1320.71,2984.32 1320.22,2994.45 1309.88,3001.29 1297.83,2993.4 1293.02,2997.09 1289.27,3013.92 1283.96,3022.6 1275.93,3022.85 1266.2,3024.26 1259.83,3020.74 1253.98,3024.67 1246.93,3031.3 1237.88,3017.88 1214.41,3015.12 1185.95,3005.82 1174.43,3017.4 1174.77,3035.97 1170.62,3043.42 1158.95,3043.06 1145.56,3029.7 1137.74,3036.82 1127.73,3037.17 1121.47,3030.56 1114.84,3035.16 "/>
    <polygon id="_49033144" fill="none" stroke="#8C8C60" stroke-width="1.70079" points="1135.63,3064.37 1145.03,3056.57 1151.07,3066.14 1147.62,3071.91 1141.05,3068.08 "/>
    <polygon id="_49002640" fill="none" stroke="#8C8C60" stroke-width="1.70079" points="1106.27,3050.55 1116.97,3039.29 1124.74,3039.36 1126.9,3047.28 1113.85,3057.28 "/>
    <polygon id="_49023576" fill="none" stroke="#8C8C60" stroke-width="1.70079" points="1199.09,3083.81 1203.68,3079.3 1205.9,3079.47 1211.78,3084.98 1214.97,3087.31 1207.63,3091.78 1198.9,3091.41 "/>
    <polygon id="_49001280" fill="none" stroke="#8C8C60" stroke-width="1.70079" points="1183.55,3033.27 1190.79,3035.84 1190.79,3059.23 1184.75,3059.38 1179.47,3046.91 "/>
   </g>
   <g>
    <polygon id="_48994456" fill="none" stroke="#8C8C60" stroke-width="1.70079" points="1101.55,3035.18 1100.76,3035.18 1084.65,3051.01 1077.2,3050.74 1072.01,3039.52 1062.07,3040.08 1063.17,3054.71 1057.95,3063.16 1051.9,3063.64 1046.77,3052.19 1035.89,3040.99 1020.37,3026.17 1019.01,3034.27 1028.53,3047.12 1031.16,3057.65 1040.51,3074.21 1034.92,3076.65 1027.33,3072.88 1022.39,3074.6 1023.32,3087.11 1018.22,3089.14 1009.87,3071.95 1005.69,3075.35 1010.35,3090.28 1006.1,3095.77 997.892,3090.65 990.472,3098.65 985.473,3097.7 972.853,3082.02 968.897,3067.38 952.977,3069.18 952.616,3082.45 946.493,3089.99 922.244,3090.62 902.949,3095.94 900.695,3102.9 892.311,3097.27 903.364,3081.54 889.56,3068.74 902.497,3047.97 897.925,3025.49 904.621,3018.38 928.841,3047.33 949.592,3037.22 941.026,3028.59 934.559,3005.47 943.88,3004.71 948.575,2989.64 935.851,2964.39 956.606,2950.81 963.633,2959.6 991.773,2950.88 1000.34,2952.29 1013.68,2942.87 1014.45,2956.62 1034.34,2952.28 1047.02,2963.66 1060.23,2956.58 1061.69,2942.46 1061.43,2942.38 1077.68,2950.18 1085.65,2970.31 1095.19,2970.61 1100.47,2983.63 1114.08,2984.93 1120.31,2972.88 1130.85,2973.55 1137.04,2989.94 1123.59,2990.26 1102.89,3011.96 "/>
    <polygon id="_49242096" fill="none" stroke="#8C8C60" stroke-width="1.70079" points="919.902,3105.83 917.613,3101.96 915.411,3099.48 920.206,3095.37 927.073,3095.37 930.123,3096.73 935.853,3097.08 933.413,3101.59 930.16,3105.16 "/>
    <polygon id="_49270552" fill="none" stroke="#8C8C60" stroke-width="1.70079" points="945.243,3112.33 945.2,3102.93 951.289,3097.53 953.272,3114.98 946.997,3115.96 "/>
    <polygon id="_49252336" fill="none" stroke="#8C8C60" stroke-width="1.70079" points="961.217,3097.21 960.741,3079.6 965.536,3078.08 967.638,3089.34 973.206,3095.95 972.996,3103.68 971.509,3105.3 971.404,3108.93 966.299,3114.24 961.675,3110.34 "/>
    <polygon id="_49251600" fill="none" stroke="#8C8C60" stroke-width="1.70079" points="995.754,3108.44 997.006,3102.07 1002.73,3100.5 1006.12,3097.53 1012.92,3102.86 1015.44,3108.07 1009.04,3114.68 996.213,3112.94 "/>
    <polygon id="_49251456" fill="none" stroke="#8C8C60" stroke-width="1.70079" points="1032.88,3087.27 1045.84,3080.68 1048.32,3091.63 1039.26,3093.51 "/>
    <polygon id="_49250720" fill="none" stroke="#8C8C60" stroke-width="1.70079" points="1051.01,3074.74 1053.08,3067.81 1060.08,3067.72 1064.73,3078.24 1058.69,3081.41 1052.12,3077.59 "/>
    <polygon id="_49244552" fill="none" stroke="#8C8C60" stroke-width="1.70079" points="1087.28,3059.62 1091.5,3053.98 1107.04,3061.82 1106.61,3068.88 1091.4,3066.36 "/>
   </g>
  </g>
  <g id="_47237520">
   <polygon id="_49242216" fill="none" stroke="#8C8C60" stroke-width="1.70079" points="267.606,2961.82 278.207,2977.57 271.3,2995.71 263.097,2993.98 261.43,2962.19 "/>
   <polygon id="_49274792" fill="none" stroke="#8C8C60" stroke-width="1.70079" points="246.452,2978.24 253.967,2990.16 251.441,3001.76 243.67,3006.08 237.194,2991.39 238.549,2983.36 "/>
   <polygon id="_49358448" fill="none" stroke="#8C8C60" stroke-width="1.70079" points="263.289,3000.27 269.941,3008.3 267.414,3022.93 262.234,3027.68 255.758,3023.79 252.795,3009.29 "/>
   <polygon id="_49357656" fill="none" stroke="#8C8C60" stroke-width="1.70079" points="229.615,3015.82 239.289,3019.97 239.353,3029.41 231.582,3031.57 226.401,3025.95 "/>
   <polygon id="_49346512" fill="none" stroke="#8C8C60" stroke-width="1.70079" points="208.892,3019.71 214.681,3015.65 219.925,3020.77 216.04,3030.71 208.71,3032.31 206.111,3028.98 206.111,3028.55 "/>
   <polygon id="_49345704" fill="none" stroke="#8C8C60" stroke-width="1.70079" points="208.892,3044.34 217.703,3040.27 222.947,3047.55 224.674,3051.88 214.754,3060.83 209.996,3057.49 209.133,3053.17 "/>
   <polygon id="_49344928" fill="none" stroke="#8C8C60" stroke-width="1.70079" points="195.078,3053.84 201.298,3054.96 203.52,3060.52 203.509,3064.8 204.825,3071.2 194.886,3071.32 191.864,3059.22 "/>
   <polygon id="_49347728" fill="none" stroke="#8C8C60" stroke-width="1.70079" points="185.148,3071.12 194.822,3077 200.93,3090.33 199.624,3093.32 199.212,3098.41 187.547,3097.67 184.837,3085.63 179.344,3079.53 "/>
   <polygon id="_48952424" fill="none" stroke="#8C8C60" stroke-width="1.70079" points="146.294,3009.78 162.496,3017.71 162.516,3022.81 140.058,3021.2 140.49,3014.29 "/>
   <polygon id="_49331344" fill="none" stroke="#8C8C60" stroke-width="1.70079" points="155.791,3030.51 159.545,3036.75 156.366,3044.12 161.433,3051.86 153.43,3063.07 148.27,3062.99 149.128,3048.14 143.08,3041.94 149.987,3035.03 "/>
   <polygon id="_47233080" fill="none" stroke="#8C8C60" stroke-width="1.70079" points="154.064,3107.41 172.928,3109.76 177.952,3115.84 171.362,3124.01 150.84,3130.04 135.75,3129.52 132.723,3124.61 146.534,3113.22 "/>
   <polygon id="_47234136" fill="none" stroke="#8C8C60" stroke-width="1.70079" points="165.289,3090.13 171.045,3091.22 177.838,3097.65 178.038,3102.39 165.97,3101.01 160.785,3095.23 "/>
   <polygon id="_47234856" fill="none" stroke="#8C8C60" stroke-width="1.70079" points="130.752,3071.12 134.505,3071.75 136.075,3079.98 130.349,3090.74 133.571,3098.07 122.799,3097.98 121.067,3082.71 "/>
   <polygon id="_47235792" fill="none" stroke="#8C8C60" stroke-width="1.70079" points="80.2409,2984.72 96.0117,3000 110.57,3002.67 116.952,3013.4 125.338,3017.01 126.649,3027.42 136.604,3039.53 129.256,3061.04 111.723,3063.88 100.685,3051.67 93.9852,3051.01 88.2607,3060.92 98.2817,3068.5 89.8591,3088.41 91.9593,3091.84 100.252,3092.07 105.29,3088.76 121.464,3097.49 121.543,3104.16 118.155,3111.75 124.124,3117.93 123.087,3125.48 113.245,3132.28 110.76,3121.79 104.384,3123.01 99.7696,3112.49 85.9181,3102.6 73.7187,3105.29 72.0264,3094.84 67.309,3088.85 57.8616,3087.88 52.2062,3081.53 50.58,3069.36 40.8988,3058.24 34.306,3058.34 29.0027,3057.13 26.231,3066.71 18.7639,3067.12 13.2928,3054.88 16.2428,3041.93 10.9528,3036.26 14.2393,3027.6 33.4043,3019.43 42.1132,3022.18 51.423,3020.76 58.877,3011.23 67.1508,3016.5 64.8825,3031.32 71.0048,3032.88 76.235,3026.9 74.3131,3022.51 74.2697,3016.37 69.6974,3008.55 55.4414,3006.51 67.9612,2990.09 "/>
   <polygon id="_47236800" fill="none" stroke="#8C8C60" stroke-width="1.70079" points="229.615,3142.84 233.643,3145.65 241.3,3149.5 239.235,3152.91 237.465,3158.34 231.583,3158.17 226.39,3166.33 213.459,3156.74 216.045,3149.24 "/>
  </g>
 </g>
</svg>
